<?xml version="1.0" encoding="UTF-8" standalone="no"?><!-- Generator: Gravit.io --><svg xmlns="http://www.w3.org/2000/svg" xmlns:xlink="http://www.w3.org/1999/xlink" style="isolation:isolate" viewBox="0 0 40 60" width="40pt" height="60pt"><defs><clipPath id="_clipPath_hFKgTP1dWuiDwJkaBkL4tork6rQcVtKs"><rect width="40" height="60"/></clipPath></defs><g clip-path="url(#_clipPath_hFKgTP1dWuiDwJkaBkL4tork6rQcVtKs)"><g><path d=" M 11.982 34.429 C 11.879 34.557 11.797 34.699 11.738 34.852 L 11.671 35.347 C 11.663 35.581 11.712 35.814 11.813 36.025 C 11.912 36.212 12.032 36.386 12.171 36.545 C 12.704 37.198 13.592 38.212 14.799 39.599 C 16.005 40.985 17.258 42.399 18.579 43.913 L 17.805 45.254 L 9.297 43.697 L 14.994 50.122 L 14.207 51.486 C 11.609 50.99 9.589 50.576 8.183 50.297 C 6.776 50.018 5.561 49.787 4.612 49.584 C 4.383 49.54 4.147 49.542 3.918 49.591 C 3.723 49.637 3.535 49.707 3.358 49.801 C 3.205 49.877 3.064 49.975 2.939 50.092 L 2.667 50.563 L 2.15 50.264 L 5.096 45.16 L 5.614 45.459 L 5.22 46.141 L 5.016 46.494 L 4.935 46.635 C 4.991 46.682 5.054 46.719 5.123 46.744 C 5.123 46.744 5.123 46.744 5.311 46.852 C 5.311 46.852 6.536 47.12 7.69 47.348 C 7.69 47.348 10.322 47.895 12.042 48.23 L 6.236 41.992 L 7.064 40.558 L 15.713 42.196 C 14.755 41.141 13.99 40.292 13.384 39.66 C 12.777 39.027 12.264 38.449 11.828 38.009 C 11.392 37.569 11.335 37.505 11.151 37.336 C 10.981 37.197 10.791 37.087 10.586 37.01 C 10.487 36.957 10.367 36.959 10.27 37.015 C 10.126 37.074 9.993 37.156 9.878 37.259 L 9.606 37.73 L 9.294 38.271 L 8.753 37.958 L 10.98 34.101 L 11.982 34.429 Z " fill="rgb(255,255,255)"/><path d=" M 26.961 29.342 L 24.652 33.34 L 23.938 33.491 L 23.139 33.626 C 23.308 34.267 23.359 34.934 23.288 35.594 C 23.197 36.191 22.994 36.765 22.688 37.285 C 22.288 38.044 21.626 38.632 20.825 38.938 C 20.076 39.202 19.249 39.126 18.562 38.729 C 18.246 38.556 17.964 38.329 17.726 38.058 C 17.504 37.776 17.326 37.462 17.198 37.126 C 17.075 36.747 16.997 36.354 16.964 35.956 L 16.997 34.596 C 16.409 34.699 15.811 34.732 15.215 34.695 C 14.777 34.651 14.354 34.513 13.974 34.292 C 13.328 33.947 12.901 33.299 12.836 32.57 C 12.73 31.772 12.898 30.963 13.315 30.274 C 13.64 29.648 14.162 29.145 14.8 28.843 C 15.347 28.589 15.984 28.627 16.497 28.945 C 16.956 29.214 17.325 29.613 17.56 30.091 C 17.81 30.704 17.932 31.361 17.918 32.023 L 19.981 31.709 L 21.852 31.347 C 21.635 30.887 21.372 30.452 21.066 30.046 C 20.859 29.755 20.597 29.508 20.295 29.319 C 20.177 29.251 20.06 29.183 19.789 29.434 L 19.088 30.159 L 18.571 29.86 L 20.744 26.097 L 21.261 26.396 C 21.093 26.702 20.967 27.03 20.886 27.371 C 20.834 27.638 20.847 27.915 20.923 28.176 L 21.17 28.726 C 21.314 28.966 21.471 29.182 21.591 29.409 L 22.052 30.239 C 22.238 30.562 22.401 30.897 22.54 31.242 C 23.109 31.149 23.671 31.012 24.219 30.832 C 24.532 30.767 24.83 30.64 25.093 30.458 C 25.35 30.304 25.58 30.108 25.773 29.879 L 26.275 29.008 L 26.961 29.342 Z  M 22.539 33.687 L 20.179 34.081 L 17.661 34.477 C 17.754 34.846 17.934 35.186 18.186 35.47 C 18.422 35.755 18.709 35.995 19.031 36.178 C 19.563 36.512 20.208 36.612 20.815 36.455 C 21.417 36.281 21.924 35.874 22.222 35.323 C 22.399 35.103 22.541 34.857 22.643 34.594 C 22.684 34.311 22.681 34.023 22.633 33.742 M 16.165 30.008 C 15.839 29.796 15.449 29.703 15.062 29.747 C 14.733 29.803 14.45 30.012 14.298 30.309 C 14.132 30.561 14.078 30.871 14.149 31.164 C 14.254 31.453 14.46 31.694 14.729 31.844 C 15.045 32.018 15.398 32.115 15.759 32.124 C 16.309 32.144 16.86 32.116 17.406 32.041 C 17.377 31.606 17.243 31.185 17.017 30.813 C 16.801 30.481 16.509 30.205 16.165 30.008" fill="rgb(255,255,255)"/><path d=" M 29.446 17.921 L 32.419 19.888 L 27.327 28.707 L 26.809 28.408 L 27.122 27.868 L 27.366 27.444 C 27.42 27.283 27.394 27.106 27.298 26.966 C 27.181 26.848 27.035 26.763 26.874 26.721 L 20.125 22.824 C 20.009 22.72 19.873 22.641 19.725 22.593 C 19.539 22.588 19.358 22.651 19.215 22.77 L 18.789 23.182 L 18.518 23.652 L 18 23.354 L 21.028 18.109 L 21.545 18.408 L 21.247 18.925 L 20.962 19.419 C 20.915 19.594 20.943 19.781 21.04 19.935 C 21.157 20.053 21.303 20.137 21.463 20.179 L 27.719 23.791 C 27.936 23.957 28.173 24.094 28.425 24.198 C 28.59 24.266 28.777 24.259 28.937 24.18 C 29.121 24.093 29.277 23.954 29.387 23.782 L 29.876 22.935 C 30.104 22.597 30.308 22.243 30.487 21.877 C 30.622 21.6 30.67 21.289 30.625 20.985 C 30.5 20.54 30.312 20.115 30.068 19.722 C 29.781 19.243 29.513 18.837 29.255 18.469 L 29.446 17.921 Z " fill="rgb(255,255,255)"/><path d=" M 34.878 8.514 L 37.85 10.481 L 32.758 19.3 L 32.241 19.001 L 32.567 18.437 C 32.663 18.316 32.741 18.181 32.797 18.037 C 32.844 17.869 32.825 17.689 32.742 17.535 C 32.618 17.427 32.474 17.344 32.319 17.29 L 25.569 13.393 C 25.454 13.289 25.318 13.21 25.17 13.163 C 24.98 13.177 24.798 13.246 24.647 13.362 L 24.22 13.775 L 23.949 14.245 L 23.431 13.946 L 26.473 8.678 L 26.99 8.977 L 26.692 9.494 L 26.393 10.012 C 26.364 10.188 26.391 10.368 26.471 10.528 C 26.596 10.635 26.739 10.718 26.895 10.772 L 33.151 14.384 C 33.368 14.548 33.605 14.684 33.856 14.791 C 34.023 14.85 34.206 14.843 34.368 14.773 C 34.553 14.685 34.709 14.547 34.818 14.374 L 35.32 13.504 C 35.543 13.174 35.743 12.828 35.918 12.469 C 36.056 12.185 36.109 11.867 36.07 11.554 C 35.924 11.117 35.738 10.694 35.513 10.292 C 35.264 9.865 34.988 9.454 34.687 9.062 L 34.878 8.514 Z " fill="rgb(255,255,255)"/></g></g></svg>